<svg xmlns="http://www.w3.org/2000/svg" viewBox="0 0 64 52.7"><defs><style>.cls-1,.cls-2{fill:none;stroke:#000;stroke-miterlimit:10;stroke-width:1.5px;}.cls-2{stroke-dasharray:1.5 2;}</style></defs><title>Asset 7</title><g id="Layer_2" data-name="Layer 2"><g id="Layer_1-2" data-name="Layer 1"><path class="cls-1" d="M41.67,39.41h3a3.13,3.13,0,0,1,3.13,3.13h0a3.14,3.14,0,0,1-3.13,3.14h-3"/><path class="cls-1" d="M41.67,33.13h3a3.14,3.14,0,0,1,3.13,3.14h0a3.14,3.14,0,0,1-3.13,3.14h-3"/><path class="cls-1" d="M40.44,26.86h4.4a3,3,0,0,1,3,3h0a3.26,3.26,0,0,1-3.27,3.27H41.8"/><path class="cls-1" d="M14.79,26.86h9.77L26,25.08a14,14,0,0,0,3-8.6h0a3.13,3.13,0,0,1,3.13-3.13h0a3.14,3.14,0,0,1,3.14,3.13v1.88a14,14,0,0,1-2,7.21l-.78,1.29h8"/><path class="cls-1" d="M41.67,45.68h1.18A3.14,3.14,0,0,1,46,48.81h0A3.15,3.15,0,0,1,42.85,52H30A4.52,4.52,0,0,1,28,51.51l-2.29-1.07a5.81,5.81,0,0,0-2.46-.55H12.66"/><line class="cls-2" x1="17.76" y1="45.68" x2="27.81" y2="45.68"/><line class="cls-1" x1="7.22" y1="32" y2="32"/><line class="cls-1" x1="10.54" y1="19.61" x2="4.29" y2="16"/><line class="cls-1" x1="19.61" y1="10.54" x2="16" y2="4.29"/><line class="cls-1" x1="10.54" y1="19.61" x2="4.29" y2="16"/><line class="cls-1" x1="19.61" y1="10.54" x2="16" y2="4.29"/><line class="cls-1" x1="19.61" y1="10.54" x2="16" y2="4.29"/><line class="cls-1" x1="32" y1="7.22" x2="32"/><line class="cls-1" x1="44.39" y1="10.54" x2="48" y2="4.29"/><line class="cls-1" x1="53.46" y1="19.61" x2="59.71" y2="16"/><line class="cls-1" x1="56.78" y1="32" x2="64" y2="32"/><line class="cls-1" x1="53.46" y1="44.39" x2="59.71" y2="48"/></g></g></svg>