<svg xmlns="http://www.w3.org/2000/svg" viewBox="0 0 51.47 65.66"><defs><style>.cls-1,.cls-2,.cls-3{fill:none;stroke:#000;stroke-miterlimit:10;stroke-width:1.5px;}.cls-1{stroke-dasharray:1.5 1.7;}.cls-3{stroke-dasharray:1.5 2;}</style></defs><title>Asset 12</title><g id="Layer_2" data-name="Layer 2"><g id="Layer_1-2" data-name="Layer 1"><line class="cls-1" x1="25.73" y1="45.25" x2="25.73" y2="50.73"/><path class="cls-2" d="M37.5,9.47c7.87.66,13.22,1.94,13.22,3.43,0,2.14-11.19,3.88-25,3.88S.75,15,.75,12.9c0-1.48,5.3-2.76,13.11-3.42"/><path class="cls-2" d="M33.55,36.5c2.63.62,4.31,1.54,4.31,2.57,0,1.86-5.43,3.37-12.13,3.37s-12.12-1.51-12.12-3.37c0-1,1.7-2,4.36-2.58"/><polyline class="cls-2" points="10.12 32.12 8.56 28.92 7 25.71 5.44 22.51 3.88 19.3 2.31 16.1 0.75 12.9"/><polyline class="cls-2" points="21.05 54.55 14.81 41.73 13.69 39.45"/><polyline class="cls-2" points="37.86 39.29 36.66 41.73 30.42 54.55"/><polyline class="cls-2" points="50.72 12.9 49.15 16.1 47.59 19.3 46.03 22.51 44.47 25.71 42.91 28.92 41.35 32.12"/><line class="cls-2" x1="17.07" y1="6.8" x2="17.07" y2="12.9"/><line class="cls-2" x1="20.53" y1="6.8" x2="20.53" y2="12.9"/><line class="cls-2" x1="24" y1="6.8" x2="24" y2="12.9"/><line class="cls-2" x1="27.47" y1="6.8" x2="27.47" y2="12.9"/><line class="cls-2" x1="30.94" y1="6.8" x2="30.94" y2="12.9"/><line class="cls-2" x1="34.4" y1="6.8" x2="34.4" y2="12.9"/><line class="cls-3" x1="17.07" x2="17.07" y2="6.09"/><line class="cls-3" x1="20.53" x2="20.53" y2="6.09"/><line class="cls-3" x1="24" x2="24" y2="6.09"/><line class="cls-3" x1="27.47" x2="27.47" y2="6.09"/><line class="cls-3" x1="30.94" x2="30.94" y2="6.09"/><line class="cls-3" x1="34.4" x2="34.4" y2="6.09"/><line class="cls-2" x1="20.53" y1="30.56" x2="20.53" y2="39.07"/><line class="cls-2" x1="24" y1="30.56" x2="24" y2="39.07"/><line class="cls-2" x1="27.47" y1="30.56" x2="27.47" y2="39.07"/><line class="cls-2" x1="30.94" y1="30.56" x2="30.94" y2="39.07"/><line class="cls-3" x1="20.53" y1="23.76" x2="20.53" y2="29.85"/><line class="cls-3" x1="24" y1="23.76" x2="24" y2="29.85"/><line class="cls-3" x1="27.47" y1="23.76" x2="27.47" y2="29.85"/><line class="cls-3" x1="30.94" y1="23.76" x2="30.94" y2="29.85"/><line class="cls-2" x1="25.73" y1="52.21" x2="25.73" y2="62.41"/><polyline class="cls-2" points="28.76 58.1 27.99 59.57 27.23 61.05 26.46 62.52 25.69 64 24.95 62.51 24.21 61.02 23.48 59.53 22.73 58.04"/></g></g></svg>