<svg xmlns="http://www.w3.org/2000/svg" viewBox="0 0 64.72 58.36"><defs><style>.cls-1,.cls-2{fill:none;stroke:#000;stroke-miterlimit:10;stroke-width:1.5px;}.cls-2{stroke-dasharray:1.5 2.6;}</style></defs><title>Asset 9</title><g id="Layer_2" data-name="Layer 2"><g id="Layer_1-2" data-name="Layer 1"><path class="cls-1" d="M32.62,12.55,44.67,8.34a3,3,0,0,1,3.77,1.86h0A3,3,0,0,1,46.57,14l-8.76,3"/><path class="cls-1" d="M38,16.88l8.77-3a3,3,0,0,1,3.76,1.86h0a3,3,0,0,1-1.86,3.77l-5.86,2.11"/><path class="cls-1" d="M43,21.61l5.86-2.11a3,3,0,0,1,3.77,1.86h0a3,3,0,0,1-1.87,3.77l-4.53,1.48"/><path class="cls-1" d="M46.36,26.57l4.54-1.49A3,3,0,0,1,54.66,27h0a3,3,0,0,1-1.86,3.76l-7.34,4.11"/><rect class="cls-1" x="18.25" y="5.74" width="5.94" height="13.11" rx="2.97" transform="matrix(0.32, -0.95, 0.95, 0.32, 2.77, 28.47)"/><rect class="cls-1" x="12.54" y="15.24" width="15.19" height="5.94" rx="2.97" transform="translate(33.37 41.92) rotate(-161.32)"/><rect class="cls-1" x="10.49" y="20.69" width="14.35" height="5.94" rx="2.97" transform="translate(26.81 51.73) rotate(-161.33)"/><path class="cls-1" d="M10.65,30.71l4,1.3a3,3,0,0,0,3.76-1.86h0a3,3,0,0,0-1.86-3.76l-4-1.31A3,3,0,0,0,8.79,27h0A3,3,0,0,0,10.65,30.71Z"/><polyline class="cls-1" points="20.71 8.99 24.27 0.87 33.89 2.22"/><path class="cls-1" d="M44,8.58,41.24.87l-14.71,3a5.44,5.44,0,0,0,3.07,4,5.94,5.94,0,0,0,4,.3l1.59-.4v3.83"/><line class="cls-1" x1="12.78" y1="31.43" x2="0.38" y2="38.77"/><line class="cls-1" x1="52.8" y1="30.71" x2="4.7" y2="57.7"/><line class="cls-1" x1="33.03" y1="41.78" x2="54.33" y2="52.73"/><line class="cls-1" x1="50.67" y1="31.9" x2="64.38" y2="38.77"/><line class="cls-2" x1="50.67" y1="35.91" x2="60.05" y2="40.58"/><line class="cls-2" x1="13.04" y1="35.54" x2="4.7" y2="40.58"/></g></g></svg>