<svg xmlns="http://www.w3.org/2000/svg" viewBox="0 0 65.5 58.37"><defs><style>.cls-1{fill:none;stroke:#000;stroke-miterlimit:10;stroke-width:1.5px;}</style></defs><title>Asset 14</title><g id="Layer_2" data-name="Layer 2"><g id="Layer_1-2" data-name="Layer 1"><line class="cls-1" x1="12.46" y1="5.35" x2="13.96" y2="5.35"/><line class="cls-1" x1="8.78" y1="5.35" x2="10.28" y2="5.35"/><line class="cls-1" x1="5.1" y1="5.35" x2="6.6" y2="5.35"/><line class="cls-1" x1="37.13" y1="20.31" x2="28.67" y2="20.31"/><line class="cls-1" x1="50.24" y1="9.68" x2="41.47" y2="18.45"/><line class="cls-1" x1="24.36" y1="22.08" x2="15.27" y2="31.17"/><circle class="cls-1" cx="52.03" cy="7.89" r="2.54"/><path class="cls-1" d="M42.21,20.25a2.54,2.54,0,0,1-5.08.06v-.06a2.54,2.54,0,1,1,5.08,0Z"/><path class="cls-1" d="M28.67,20.25v.06a2.54,2.54,0,0,1-2.54,2.48,2.53,2.53,0,0,1-2.54-2.54,2.54,2.54,0,0,1,5.08,0Z"/><circle class="cls-1" cx="13.47" cy="32.91" r="2.54"/><rect class="cls-1" x="0.75" y="0.75" width="64" height="44.88" rx="2"/><path class="cls-1" d="M15.44,54H50.06a1,1,0,0,1,1,1v2.63a0,0,0,0,1,0,0H14.44a0,0,0,0,1,0,0V55A1,1,0,0,1,15.44,54Z"/><polygon class="cls-1" points="42.64 45.63 22.86 45.63 20.77 53.99 44.73 53.99 42.64 45.63"/><line class="cls-1" x1="64.75" y1="40.61" x2="0.75" y2="40.61"/><line class="cls-1" x1="5.1" y1="10.43" x2="20.77" y2="10.43"/><line class="cls-1" x1="5.1" y1="14.07" x2="17.42" y2="14.07"/><line class="cls-1" x1="59.86" y1="34.73" x2="44.2" y2="34.73"/><line class="cls-1" x1="59.86" y1="31.09" x2="47.55" y2="31.09"/></g></g></svg>