<svg xmlns="http://www.w3.org/2000/svg" viewBox="0 0 65.16 62.76"><defs><style>.cls-1,.cls-2{fill:none;stroke:#000;stroke-miterlimit:10;stroke-width:1.5px;}.cls-2{stroke-dasharray:1.5 2;}</style></defs><title>Asset 2</title><g id="Layer_2" data-name="Layer 2"><g id="Layer_1-2" data-name="Layer 1"><polygon class="cls-1" points="42.65 44.87 17.84 44.87 12.68 29.63 47.81 29.63 42.65 44.87"/><line class="cls-1" x1="24.04" y1="44.87" x2="21.46" y2="29.63"/><line class="cls-1" x1="30.24" y1="44.87" x2="30.24" y2="29.63"/><line class="cls-1" x1="36.45" y1="44.87" x2="39.02" y2="29.63"/><line class="cls-1" x1="11.97" y1="25.19" x2="48.52" y2="25.19"/><line class="cls-1" x1="34.66" y1="25.19" x2="39.02" y2="17.81"/><path class="cls-2" d="M1.1,27.16a33.68,33.68,0,0,0,.41,12"/><path class="cls-1" d="M22.24,3.32A30.12,30.12,0,0,0,1.1,27.16"/><polyline class="cls-1" points="16.93 0.67 22.24 3.32 19.59 8.63"/><path class="cls-2" d="M50,9A33.58,33.58,0,0,0,39.52,3.24"/><path class="cls-1" d="M59.76,39.35A30.12,30.12,0,0,0,50,9"/><polyline class="cls-1" points="64.75 36.14 59.76 39.35 56.55 34.36"/><path class="cls-2" d="M40.69,60.36A33.65,33.65,0,0,0,51,54.25"/><path class="cls-1" d="M9.63,53.24a30.13,30.13,0,0,0,31.06,7.12"/><polyline class="cls-1" points="9.85 59.17 9.63 53.24 15.56 53.02"/></g></g></svg>