<svg xmlns="http://www.w3.org/2000/svg" viewBox="0 0 65.95 61.31"><defs><style>.cls-1,.cls-2{fill:none;stroke:#000;stroke-miterlimit:10;stroke-width:1.5px;}.cls-2{stroke-dasharray:1.5 2.8;}</style></defs><title>Asset 16</title><g id="Layer_2" data-name="Layer 2"><g id="Layer_1-2" data-name="Layer 1"><path class="cls-1" d="M39.31,19.79,38.87,16l-3.36-.29A16,16,0,0,0,32,9.26l1.53-3-3-2.39L27.89,6a16,16,0,0,0-7.06-2l-1-3.2L16,1.25l-.29,3.36A16,16,0,0,0,9.26,8.18l-3-1.54-2.39,3L6,12.23a16,16,0,0,0-2,7.06l-3.2,1,.43,3.83,3.36.28a16,16,0,0,0,3.57,6.42l-1.54,3,3,2.39,2.57-2.17a15.83,15.83,0,0,0,7.06,2l1,3.21,3.83-.44.28-3.36A16,16,0,0,0,30.86,32l3,1.53,2.39-3-2.17-2.57a15.83,15.83,0,0,0,2-7.06Z"/><circle class="cls-1" cx="20.06" cy="20.06" r="10.11"/><path class="cls-1" d="M22.36,39.07c1,2.48,2.63,5.26,4.1,8.09h0A20.71,20.71,0,0,1,28,55.05v6.26"/><path class="cls-1" d="M51.39,61.31l0-13.8,6.4,0a2.88,2.88,0,0,0,3-3l-.31-7.56,4.26-.11-5-11.31V21.05C58.73,8.41,47.53-.17,31.93,4.67"/><line class="cls-1" x1="51.42" y1="47.51" x2="43.27" y2="47.51"/><path class="cls-2" d="M36.63,7.91S50.49,5,54.57,17.46"/></g></g></svg>