<svg xmlns="http://www.w3.org/2000/svg" viewBox="0 0 65.5 58.62"><defs><style>.cls-1{fill:none;stroke:#000;stroke-miterlimit:10;stroke-width:1.5px;}</style></defs><title>Asset 5</title><g id="Layer_2" data-name="Layer 2"><g id="Layer_1-2" data-name="Layer 1"><path class="cls-1" d="M30,53.41l4.45,2.23L30,57.87H3A2.23,2.23,0,0,1,.75,55.64h0A2.23,2.23,0,0,1,3,53.41Z"/><line class="cls-1" x1="6.26" y1="57.87" x2="6.26" y2="53.41"/><line class="cls-1" x1="27.64" y1="57.87" x2="27.64" y2="53.41"/><line class="cls-1" x1="47.17" y1="6.91" x2="12.89" y2="6.91"/><polyline class="cls-1" points="51.51 6.91 59.31 6.91 59.31 31.72"/><polyline class="cls-1" points="8.55 6.91 0.75 6.91 0.75 48.25 37.6 48.25"/><line class="cls-1" x1="59.32" y1="13.19" x2="0.75" y2="13.19"/><circle class="cls-1" cx="50.72" cy="43.06" r="14.03"/><polyline class="cls-1" points="50.72 34.68 50.72 43.06 43.63 43.06"/><line class="cls-1" x1="50.72" y1="32.7" x2="50.72" y2="31.2"/><line class="cls-1" x1="43.39" y1="35.73" x2="42.33" y2="34.67"/><line class="cls-1" x1="40.36" y1="43.06" x2="38.86" y2="43.06"/><line class="cls-1" x1="43.39" y1="50.38" x2="42.33" y2="51.44"/><line class="cls-1" x1="50.72" y1="53.41" x2="50.72" y2="54.91"/><line class="cls-1" x1="58.04" y1="50.38" x2="59.1" y2="51.44"/><line class="cls-1" x1="61.08" y1="43.06" x2="62.58" y2="43.06"/><line class="cls-1" x1="58.04" y1="35.73" x2="59.1" y2="34.67"/><rect class="cls-1" x="8.55" y="0.75" width="4.34" height="8.23"/><rect class="cls-1" x="47.17" y="0.75" width="4.34" height="8.23"/><polyline class="cls-1" points="9.14 23.11 10.72 25.42 16.53 21.42"/><polyline class="cls-1" points="26.43 37.41 28.02 39.71 33.83 35.71"/><rect class="cls-1" x="6.09" y="18.47" width="13.3" height="10.29"/><rect class="cls-1" x="23.38" y="18.47" width="13.3" height="10.29"/><polyline class="cls-1" points="53.98 27.36 53.98 18.47 40.68 18.47 40.68 28.76 43.49 28.76"/><rect class="cls-1" x="6.09" y="32.76" width="13.3" height="10.29"/><polyline class="cls-1" points="36.68 35.33 36.68 32.76 23.38 32.76 23.38 43.06 34.69 43.06"/></g></g></svg>