<svg xmlns="http://www.w3.org/2000/svg" viewBox="0 0 64.53 66.14"><defs><style>.cls-1,.cls-2{fill:none;stroke:#000;stroke-width:1.5px;}.cls-1{stroke-miterlimit:10;}.cls-2{stroke-linecap:round;stroke-linejoin:round;}</style></defs><title>Asset 1</title><g id="Layer_2" data-name="Layer 2"><g id="Layer_1-2" data-name="Layer 1"><polygon class="cls-1" points="28.78 63.63 26.7 64.75 27.81 58.53 23.25 54.16 29.51 53.29 32.27 47.61 35.02 53.29 41.28 54.16 36.73 58.53 37.84 64.75 32.27 61.77 31.36 62.26 28.78 63.63"/><polyline class="cls-1" points="38.74 51.65 40.7 47.61 42.67 51.65 47.12 52.27 43.88 55.38 44.67 59.81 40.7 57.69"/><polyline class="cls-1" points="25.79 51.65 23.83 47.61 21.87 51.65 17.41 52.27 20.65 55.38 19.86 59.81 23.83 57.69"/><path class="cls-2" d="M36,31.76h0A3.59,3.59,0,0,1,34.91,34a3.76,3.76,0,1,1-3-6.42A3.75,3.75,0,0,1,36,31.76Z"/><path class="cls-2" d="M51.82,12l-4.16,5.19L36,31.76a3.75,3.75,0,0,0-4.08-4.15L46.56,16.15Z"/><line class="cls-2" x1="35.99" y1="31.77" x2="36" y2="31.76"/><line class="cls-2" x1="31.92" y1="27.61" x2="31.9" y2="27.62"/><path class="cls-1" d="M44.46,14.26A21.92,21.92,0,0,0,17,17a21.58,21.58,0,0,0,0,30.56l-7,7a31.52,31.52,0,1,1,44.57,0l-7-7a21.61,21.61,0,0,0,0-30.56A22.68,22.68,0,0,0,44.46,14.26Z"/><line class="cls-1" x1="32.27" y1="10.63" x2="32.27" y2="6.88"/><line class="cls-1" x1="21.44" y1="13.53" x2="19.57" y2="10.29"/><line class="cls-1" x1="13.52" y1="21.45" x2="10.27" y2="19.58"/><line class="cls-1" x1="10.62" y1="32.28" x2="6.87" y2="32.28"/><line class="cls-1" x1="13.52" y1="43.1" x2="10.27" y2="44.98"/><line class="cls-1" x1="51.02" y1="43.1" x2="54.26" y2="44.98"/><line class="cls-1" x1="53.92" y1="32.28" x2="57.66" y2="32.28"/><line class="cls-1" x1="51.02" y1="21.45" x2="54.26" y2="19.58"/><line class="cls-1" x1="43.09" y1="13.53" x2="44.96" y2="10.29"/></g></g></svg>