<svg xmlns="http://www.w3.org/2000/svg" viewBox="0 0 65.5 64.33"><defs><style>.cls-1{fill:none;stroke:#000;stroke-miterlimit:10;stroke-width:1.5px;}</style></defs><title>Asset 15</title><g id="Layer_2" data-name="Layer 2"><g id="Layer_1-2" data-name="Layer 1"><path class="cls-1" d="M39.77,49.11a2.69,2.69,0,1,1-5.37,0V15.22a2.69,2.69,0,0,1,5.37,0,2.65,2.65,0,0,1-.63,1.72"/><path class="cls-1" d="M46.33,45.86a3.77,3.77,0,1,1-7.47,1.07"/><path class="cls-1" d="M50.23,28.08a4.28,4.28,0,0,1-.67,8.33"/><path class="cls-1" d="M39.11,16.92a3.34,3.34,0,0,1,6,2.19l.65.59c.21,0,.42,0,.64,0a5,5,0,0,1,2.13,9.6"/><path class="cls-1" d="M46.72,34.14a6.21,6.21,0,0,1-2.31,12"/><path class="cls-1" d="M34.4,19.92a2.7,2.7,0,0,1,3.21,1.3"/><path class="cls-1" d="M34.4,28.86s3.9-1.1,4.91,2.73"/><path class="cls-1" d="M34.4,43.5s.77-4.3,4.64-4.35"/><path class="cls-1" d="M39.54,24.7s3.68-.9,5.17,2.43"/><path class="cls-1" d="M44.1,37a3.89,3.89,0,0,1-1.87,4.32"/><path class="cls-1" d="M25.73,49.11a2.69,2.69,0,1,0,5.37,0V15.22a2.69,2.69,0,0,0-5.37,0,2.65,2.65,0,0,0,.63,1.72"/><path class="cls-1" d="M19.17,45.86a3.77,3.77,0,1,0,7.47,1.07"/><path class="cls-1" d="M15.27,28.08a4.28,4.28,0,0,0,.67,8.33"/><path class="cls-1" d="M26.39,16.92a3.34,3.34,0,0,0-6,2.19l-.65.59c-.21,0-.42,0-.64,0a5,5,0,0,0-2.13,9.6"/><path class="cls-1" d="M18.78,34.14a6.21,6.21,0,0,0,2.31,12"/><path class="cls-1" d="M31.1,19.92a2.7,2.7,0,0,0-3.21,1.3"/><path class="cls-1" d="M31.1,28.86s-3.9-1.1-4.91,2.73"/><path class="cls-1" d="M31.1,43.5s-.77-4.3-4.64-4.35"/><path class="cls-1" d="M26,24.7s-3.68-.9-5.17,2.43"/><path class="cls-1" d="M21.4,37a3.89,3.89,0,0,0,1.87,4.32"/><line class="cls-1" x1="19.32" y1="8.34" x2="20.85" y2="11.5"/><line class="cls-1" x1="9.45" y1="16.88" x2="12.34" y2="18.85"/><line class="cls-1" x1="5.16" y1="29.22" x2="8.66" y2="29.47"/><line class="cls-1" x1="7.62" y1="42.04" x2="10.77" y2="40.51"/><path class="cls-1" d="M32.67.75A31.91,31.91,0,0,0,12.45,57.36"/><line class="cls-1" x1="36.29" y1="0.75" x2="34.79" y2="0.75"/><line class="cls-1" x1="39.97" y1="0.75" x2="38.47" y2="0.75"/><line class="cls-1" x1="43.65" y1="0.75" x2="42.15" y2="0.75"/><line class="cls-1" x1="47.33" y1="0.75" x2="45.83" y2="0.75"/><polyline class="cls-1" points="12.46 48.64 12.46 57.35 3.75 57.35"/><line class="cls-1" x1="46.18" y1="55.99" x2="44.65" y2="52.84"/><line class="cls-1" x1="56.05" y1="47.45" x2="53.16" y2="45.48"/><line class="cls-1" x1="60.34" y1="35.12" x2="56.84" y2="34.86"/><line class="cls-1" x1="57.88" y1="22.29" x2="54.73" y2="23.82"/><path class="cls-1" d="M32.83,63.58A31.91,31.91,0,0,0,53.05,7"/><line class="cls-1" x1="29.21" y1="63.58" x2="30.71" y2="63.58"/><line class="cls-1" x1="25.53" y1="63.58" x2="27.03" y2="63.58"/><line class="cls-1" x1="21.85" y1="63.58" x2="23.35" y2="63.58"/><line class="cls-1" x1="18.17" y1="63.58" x2="19.67" y2="63.58"/><polyline class="cls-1" points="53.04 15.7 53.04 6.99 61.75 6.99"/></g></g></svg>