<svg xmlns="http://www.w3.org/2000/svg" viewBox="0 0 33.77 65.07"><defs><style>.cls-1,.cls-2,.cls-3{fill:none;stroke:#000;stroke-width:1.5px;}.cls-1,.cls-3{stroke-miterlimit:10;}.cls-2{stroke-linecap:round;stroke-linejoin:round;}.cls-3{stroke-dasharray:1.5 2.5;}</style></defs><title>Asset 13</title><g id="Layer_2" data-name="Layer 2"><g id="Layer_1-2" data-name="Layer 1"><path class="cls-1" d="M24.65,43.09a44.47,44.47,0,0,0,3.17-17.37C27.82,12.1,16.9,1.07,16.9,1.07S6,12.1,6,25.72A44.47,44.47,0,0,0,9.15,43.09Z"/><path class="cls-2" d="M27.28,33.22c2.67,1,6,4.6,5.72,8.76a11.38,11.38,0,0,1-1.49,5c-.22-3.42-3.39-6.23-5.7-7.11"/><path class="cls-2" d="M6.49,33.22c-2.67,1-6,4.6-5.72,8.76a11.38,11.38,0,0,0,1.49,5c.22-3.42,3.39-6.23,5.7-7.11"/><circle class="cls-1" cx="16.9" cy="20.27" r="4.14"/><line class="cls-3" x1="10.24" y1="46.6" x2="23.56" y2="46.6"/><path d="M17.23,50.36a8.79,8.79,0,0,1,4.92,2v3.75l-1.7-1.45-1.79-1.54L18,55.4,16.9,59.46,15.77,55.4l-.63-2.28-1.79,1.54-1.7,1.45V52.36a8.76,8.76,0,0,1,4.92-2h.12l.15,0,.24,0h.15m0-1.5a2.06,2.06,0,0,0-.33,0,2.22,2.22,0,0,0-.33,0c-.86,0-3.31.26-6.42,2.77v7.75l4.18-3.58,2.57,9.27,2.57-9.27,4.18,3.58V51.63c-3.11-2.51-5.57-2.77-6.42-2.77Z"/></g></g></svg>