<svg xmlns="http://www.w3.org/2000/svg" viewBox="0 0 65.5 51.89"><defs><style>.cls-1,.cls-2{fill:none;stroke:#000;stroke-miterlimit:10;stroke-width:1.5px;}.cls-2{stroke-dasharray:1.5 2;}</style></defs><title>Asset 6</title><g id="Layer_2" data-name="Layer 2"><g id="Layer_1-2" data-name="Layer 1"><polyline class="cls-1" points="61.21 10.68 61.21 43.87 4.29 43.87 4.29 10.68"/><polygon class="cls-1" points="62.35 51.14 3.15 51.14 0.75 48.59 0.75 47.12 64.75 47.12 64.75 48.59 62.35 51.14"/><line class="cls-2" x1="57.19" y1="25.42" x2="37.71" y2="25.42"/><line class="cls-1" x1="42.21" y1="30.75" x2="57.19" y2="30.75"/><line class="cls-1" x1="37.71" y1="36.09" x2="57.19" y2="36.09"/><polyline class="cls-1" points="19.65 36.09 8.83 36.09 8.83 20.96 31.33 20.96 31.33 36.09 26.25 36.09"/><polygon class="cls-1" points="26.01 32.56 24.36 34.2 24.73 34.57 28.52 38.36 26.17 40.72 22.01 36.56 20.37 38.2 17.47 29.66 26.01 32.56"/><path class="cls-1" d="M61.05,10.69H4.44s0,0,0,0L10.73.75h44l6.3,9.92S61.06,10.69,61.05,10.69Z"/><path class="cls-1" d="M49.82,10.68a5.69,5.69,0,1,0,11.37,0"/><path class="cls-1" d="M38.44,10.68a5.69,5.69,0,1,0,11.38,0"/><path class="cls-1" d="M27.06,10.68a5.69,5.69,0,1,0,11.38,0"/><path class="cls-1" d="M15.68,10.68a5.69,5.69,0,1,0,11.38,0"/><path class="cls-1" d="M4.31,10.68a5.69,5.69,0,1,0,11.37,0"/><line class="cls-1" x1="49.74" y1="10.69" x2="45.95" y2="0.75"/><line class="cls-1" x1="38.41" y1="10.69" x2="37.15" y2="0.75"/><line class="cls-1" x1="27.09" y1="10.69" x2="28.35" y2="0.75"/><line class="cls-1" x1="15.76" y1="10.69" x2="19.54" y2="0.75"/></g></g></svg>