<svg xmlns="http://www.w3.org/2000/svg" viewBox="0 0 66.27 63.25"><defs><style>.cls-1,.cls-2,.cls-3,.cls-4{fill:none;stroke:#000;stroke-miterlimit:10;stroke-width:1.5px;}.cls-2{stroke-dasharray:1.5 2.1;}.cls-3{stroke-dasharray:1.5 2.54;}.cls-4{stroke-dasharray:1.5 2.65;}</style></defs><title>Asset 17</title><g id="Layer_2" data-name="Layer 2"><g id="Layer_1-2" data-name="Layer 1"><path class="cls-1" d="M49.48,34.87c0,5.54-4,11.49-5.63,14.65h0a23.17,23.17,0,0,0-1.73,8.78v4.94"/><path class="cls-1" d="M16.09,63.24l0-13.33-7.12,0a3.21,3.21,0,0,1-3.4-3.34l.35-8.42L1.14,38l5.55-12.6v-5c.89-10.2,7.69-18,18-19.51C26,.73,31.46.17,35.09,3.11"/><polyline class="cls-1" points="38.42 33.76 38.42 28.8 59.52 28.8"/><polygon class="cls-1" points="59.52 33.76 65.14 28.8 59.52 23.83 59.52 33.76"/><polyline class="cls-1" points="29.55 25.6 29.55 19.93 49.73 19.93"/><polygon class="cls-1" points="49.73 24.89 55.34 19.93 49.73 14.96 49.73 24.89"/><polyline class="cls-1" points="20.68 16.03 20.68 11.06 38.7 11.06"/><polygon class="cls-1" points="38.7 16.03 44.31 11.06 38.7 6.09 38.7 16.03"/><line class="cls-2" x1="20.68" y1="18.23" x2="20.68" y2="41.73"/><line class="cls-3" x1="29.55" y1="27.88" x2="29.55" y2="41.73"/><line class="cls-4" x1="38.42" y1="35.95" x2="38.42" y2="41.73"/><line class="cls-1" x1="16.05" y1="49.91" x2="25.34" y2="49.91"/></g></g></svg>