<svg xmlns="http://www.w3.org/2000/svg" viewBox="0 0 65.5 56.24"><defs><style>.cls-1,.cls-2,.cls-3{fill:none;stroke:#000;stroke-miterlimit:10;stroke-width:1.5px;}.cls-2{stroke-dasharray:1.5 2.4;}.cls-3{stroke-dasharray:1.5 2;}</style></defs><title>Asset 8</title><g id="Layer_2" data-name="Layer 2"><g id="Layer_1-2" data-name="Layer 1"><path class="cls-1" d="M32.28,39.73A15.77,15.77,0,1,1,12.36,24.52v-20h-1a1.87,1.87,0,0,1,0-3.74h9.65a1.87,1.87,0,1,1,0,3.74h-1V24.37A15.78,15.78,0,0,1,32.28,39.73Z"/><circle class="cls-1" cx="25.04" cy="42.86" r="2.72"/><circle class="cls-1" cx="18.4" cy="48.87" r="1.88"/><path class="cls-1" d="M11.81,29A12.68,12.68,0,0,0,4.4,41.09"/><line class="cls-2" x1="15.34" y1="5.36" x2="15.34" y2="15.31"/><line class="cls-2" x1="48.23" y1="12.56" x2="48.23" y2="29.78"/><line class="cls-3" x1="59.73" y1="50.69" x2="50.75" y2="50.69"/><path class="cls-1" d="M45.08,31.69V9.1h-.42a1.87,1.87,0,0,1,0-3.74h9.65a1.87,1.87,0,1,1,0,3.74H53.9V31.69L64.51,51.91a2.52,2.52,0,0,1-2.28,3.58H36.75a2.52,2.52,0,0,1-2.29-3.58Z"/></g></g></svg>