<svg xmlns="http://www.w3.org/2000/svg" viewBox="0 0 65.81 61.07"><defs><style>.cls-1{fill:none;stroke:#000;stroke-miterlimit:10;stroke-width:1.5px;}</style></defs><title>Asset 10</title><g id="Layer_2" data-name="Layer 2"><g id="Layer_1-2" data-name="Layer 1"><polygon class="cls-1" points="51.36 31.11 42.38 31.11 42.38 22.11 44.31 24.06 59.65 8.72 64.75 13.81 49.41 29.15 51.36 31.11"/><polygon class="cls-1" points="52.16 9.75 50.22 7.8 34.88 23.14 29.79 18.05 45.13 2.7 43.19 0.75 52.17 0.75 52.16 9.75"/><path class="cls-1" d="M53.58,43.83a20.32,20.32,0,0,0-6.27-4.52l-.05,0a8.12,8.12,0,0,0-1.63-.48,4.64,4.64,0,0,0-2.48.76c-.63.38-2.43,2-2.63,2.11a3.3,3.3,0,0,1-3.12.23,8.74,8.74,0,0,1-1.84-1.51L20.66,25.51a4.18,4.18,0,0,1-1.24-4.93,2.67,2.67,0,0,1,.42-.6s2.57-2.69,2.76-2.9c1.51-1.7-.74-6.16-5-10s-9-5.53-10.49-3.84c-.09.1-1.91,2-2.38,2.6A18.85,18.85,0,0,0,6.28,30.75l24,24a18.87,18.87,0,0,0,24.89,1.59c.63-.48,1.68-1.34,1.87-1.52C58.7,53.27,57.61,47.93,53.58,43.83Z"/><line class="cls-1" x1="19.08" y1="21.09" x2="4.46" y2="6.47"/><line class="cls-1" x1="54.58" y1="56.58" x2="39.96" y2="41.96"/></g></g></svg>