<svg xmlns="http://www.w3.org/2000/svg" viewBox="0 0 65.5 50.27"><defs><style>.cls-1{fill:none;stroke:#000;stroke-miterlimit:10;stroke-width:1.5px;}</style></defs><title>Asset 4</title><g id="Layer_2" data-name="Layer 2"><g id="Layer_1-2" data-name="Layer 1"><polygon class="cls-1" points="64.75 38.6 22.05 38.6 10.49 48.63 10.47 38.6 0.75 38.6 0.75 0.75 64.75 0.75 64.75 38.6"/><line class="cls-1" x1="6.57" y1="16.17" x2="38.17" y2="16.17"/><line class="cls-1" x1="6.57" y1="23.87" x2="49.98" y2="23.87"/><line class="cls-1" x1="17.41" y1="9.32" x2="58.93" y2="9.32"/><path class="cls-1" d="M8.32,5.46a6.28,6.28,0,0,0-1.66,5.07,1,1,0,0,0,1.24.92.75.75,0,0,0,.29-1.08.73.73,0,0,0-1.11-.12"/><path class="cls-1" d="M13.3,5.46a6.31,6.31,0,0,0-1.67,5.07,1,1,0,0,0,1.25.92.75.75,0,0,0,.29-1.08.73.73,0,0,0-1.11-.12"/><line class="cls-1" x1="48.09" y1="30.72" x2="6.57" y2="30.72"/><path class="cls-1" d="M57.18,34.58a6.28,6.28,0,0,0,1.66-5.07,1,1,0,0,0-1.24-.92.75.75,0,0,0-.29,1.09.73.73,0,0,0,1.11.11"/><path class="cls-1" d="M52.2,34.58a6.31,6.31,0,0,0,1.67-5.07,1,1,0,0,0-1.25-.92.75.75,0,0,0-.29,1.09.73.73,0,0,0,1.11.11"/></g></g></svg>