<svg xmlns="http://www.w3.org/2000/svg" viewBox="0 0 64.75 59.47"><defs><style>.cls-1,.cls-2{fill:none;stroke:#000;stroke-miterlimit:10;stroke-width:1.5px;}.cls-2{stroke-dasharray:1.5 2.2;}</style></defs><title>Asset 3</title><g id="Layer_2" data-name="Layer 2"><g id="Layer_1-2" data-name="Layer 1"><path class="cls-1" d="M42.5,47.75H30.88s-2.43.43-2.43,2.44"/><path class="cls-1" d="M14.62,37.82h6.3a10.55,10.55,0,0,1,4.49,1l7.37,3.44H42.5"/><polyline class="cls-1" points="0 35.29 14.62 35.29 14.62 56.41 2.79 56.41"/><path class="cls-1" d="M42.42,42.25a2.75,2.75,0,0,1,0,5.5"/><path class="cls-1" d="M14.62,53.88h5.07L33,58.32a7.9,7.9,0,0,0,6.12-.48l23-12.05a3,3,0,0,0-2.3-5.52L43.8,47.39"/><line class="cls-1" x1="10.32" y1="52.96" x2="10.32" y2="51.24"/><line class="cls-1" x1="7.17" y1="52.96" x2="7.17" y2="51.24"/><path class="cls-1" d="M38.2,34.63S19.56,24.11,19.56,10.87A10.12,10.12,0,0,1,38.2,5.4a10.12,10.12,0,0,1,18.63,5.47C56.83,24.11,38.2,34.63,38.2,34.63Z"/><path class="cls-2" d="M28.53,22.58a26.84,26.84,0,0,1-4-5.61,13.45,13.45,0,0,1-1.63-6.1"/></g></g></svg>