<?xml version="1.0" encoding="utf-8"?>
<!-- Generator: Adobe Illustrator 24.0.1, SVG Export Plug-In . SVG Version: 6.00 Build 0)  -->
<svg version="1.2" baseProfile="tiny" id="Layer_1" xmlns="http://www.w3.org/2000/svg" xmlns:xlink="http://www.w3.org/1999/xlink"
	 x="0px" y="0px" viewBox="0 0 698 247" xml:space="preserve">
<g>
	<path fill="#577399" d="M1.541,108.743l2.356-4.36c2.474,2.239,6.009,3.417,10.015,3.417c7.188,0,11.076-4.359,11.076-12.372
		V28.031h5.891v67.633c0,10.369-5.891,17.203-16.614,17.203C9.317,112.867,4.486,111.571,1.541,108.743z M23.103,8.353
		c0-2.592,2.121-4.831,4.831-4.831c2.71,0,4.831,2.121,4.831,4.713c0,2.71-2.121,4.831-4.831,4.831
		C25.224,13.066,23.103,10.946,23.103,8.353z"/>
	<path fill="#577399" d="M157.657,50.536v39.001h-5.656V78.579c-3.888,7.07-11.429,11.429-22.152,11.429
		c-13.786,0-22.152-7.07-22.152-17.556c0-9.309,5.892-17.203,22.977-17.203h21.091V50.3c0-11.429-6.245-17.557-18.263-17.557
		c-8.484,0-16.143,3.182-21.209,7.777l-2.946-4.242c6.127-5.42,15.082-8.719,24.626-8.719
		C149.173,27.559,157.657,35.336,157.657,50.536z M151.765,71.392V59.844h-20.973c-12.726,0-17.203,5.302-17.203,12.372
		c0,8.012,6.245,12.961,17.085,12.961C141.043,85.177,148.231,80.228,151.765,71.392z"/>
	<path fill="#577399" d="M231.414,53.6v35.937h-5.892V54.071c0-13.904-7.423-21.209-19.912-21.209
		c-14.494,0-23.33,9.308-23.33,23.919v32.756h-5.893V28.031h5.656v13.314c4.124-8.602,12.726-13.786,24.391-13.786
		C221.398,27.559,231.414,36.396,231.414,53.6z"/>
	<path fill="#577399" d="M333.157,58.784c0,18.5-10.079,28.225-27.4,28.225c-10.84,0-20.03-2.302-24.979-11.493v36.88h-5.893V28.031
		h5.656v14.493c4.831-9.426,14.14-11.964,25.215-11.964C323.078,30.559,333.157,40.403,333.157,58.784z M327.266,58.784
		c0-15.435-7.722-22.922-21.862-22.922c-14.139,0-24.744,7.487-24.744,22.922c0,15.436,10.605,22.922,24.744,22.922
		C319.544,81.706,327.266,74.219,327.266,58.784z"/>
	<path fill="#577399" d="M403.903,53.6v35.937h-5.891V54.071c0-13.904-7.424-21.209-19.913-21.209
		c-14.493,0-23.33,9.308-23.33,23.919v32.756h-5.892V2.108h5.892v38.766c4.241-8.366,12.726-13.314,24.155-13.314
		C393.889,27.559,403.903,36.396,403.903,53.6z"/>
	<path fill="#577399" d="M420.749,8.353c0-2.592,2.121-4.831,4.831-4.831s4.831,2.121,4.831,4.713c0,2.71-2.121,4.831-4.831,4.831
		S420.749,10.946,420.749,8.353z M422.634,28.031h5.893v61.506h-5.893V28.031z"/>
	<path fill="#577399" d="M447.847,2.108h5.892v87.429h-5.892V2.108z"/>
	<path fill="#577399" d="M471.174,8.353c0-2.592,2.121-4.831,4.831-4.831s4.831,2.121,4.831,4.713c0,2.71-2.121,4.831-4.831,4.831
		S471.174,10.946,471.174,8.353z M473.059,28.031h5.891v61.506h-5.891V28.031z"/>
	<path fill="#577399" d="M556.543,58.784c0,18.5-10.079,28.225-27.399,28.225c-10.841,0-20.031-2.302-24.98-11.493v36.88h-5.891
		V28.031h5.655v14.493c4.831-9.426,14.14-11.964,25.216-11.964C546.464,30.559,556.543,40.403,556.543,58.784z M550.651,58.784
		c0-15.435-7.723-22.922-21.861-22.922c-14.14,0-24.744,7.487-24.744,22.922c0,15.436,10.604,22.922,24.744,22.922
		C542.929,81.706,550.651,74.219,550.651,58.784z"/>
	<path fill="#577399" d="M630.534,58.784c0,18.5-10.078,28.225-27.399,28.225c-10.841,0-20.03-2.302-24.979-11.493v36.88h-5.892
		V28.031h5.655v14.493c4.832-9.426,14.141-11.964,25.216-11.964C620.456,30.559,630.534,40.403,630.534,58.784z M624.643,58.784
		c0-15.435-7.723-22.922-21.862-22.922s-24.744,7.487-24.744,22.922c0,15.436,10.604,22.922,24.744,22.922
		S624.643,74.219,624.643,58.784z"/>
	<path fill="#577399" d="M696.218,60.198h-51.904c0.588,14.611,11.311,24.508,26.039,24.508c6.38,0,13.965-2.828,18.678-8.602
		l3.417,3.889c-5.42,6.598-13.777,10.015-22.212,10.015c-18.617,0-31.696-12.961-31.696-31.225
		c0-18.263,12.608-31.224,29.457-31.224c16.85,0,28.339,12.725,28.339,30.989C696.335,59.019,696.218,59.609,696.218,60.198z
		 M644.431,55.602h46.131c-0.824-13.314-9.486-22.859-22.565-22.859S645.373,42.17,644.431,55.602z"/>
	<path fill="#577399" d="M101.164,60.198H49.26c0.588,14.611,11.311,24.508,26.039,24.508c6.38,0,13.965-2.828,18.678-8.602
		l3.417,3.889c-5.42,6.598-13.777,10.015-22.212,10.015c-18.617,0-31.696-12.961-31.696-31.225
		c0-18.263,12.608-31.224,29.457-31.224c16.85,0,28.339,12.725,28.339,30.989C101.281,59.019,101.164,59.609,101.164,60.198z
		 M49.377,55.602h46.131c-0.824-13.314-9.486-22.859-22.565-22.859S50.319,42.17,49.377,55.602z"/>
</g>
<g>
	<path fill="#577399" d="M403.602,163.715v36.623h-13.807v-7.605c-3.51,5.382-10.296,8.424-19.656,8.424
		c-14.274,0-23.284-7.839-23.284-18.721c0-10.413,7.021-18.604,25.975-18.604h16.147v-0.936c0-8.542-5.148-13.572-15.563-13.572
		c-7.02,0-14.274,2.34-18.954,6.201l-5.733-10.647c6.669-5.148,16.381-7.723,26.443-7.723
		C393.189,137.155,403.602,145.696,403.602,163.715z M388.977,180.798v-7.254h-15.094c-9.945,0-12.637,3.744-12.637,8.307
		c0,5.265,4.446,8.659,11.935,8.659C380.318,190.509,386.519,187.233,388.977,180.798z"/>
	<path fill="#577399" d="M422.645,112.52h14.626v86.817h-14.626V112.52z"/>
	<path fill="#577399" d="M464.368,112.52h14.625v86.817h-14.625V112.52z"/>
	<path fill="#577399" d="M553.292,162.715v36.623h-13.807v-7.605c-3.51,5.382-10.296,8.424-19.656,8.424
		c-14.274,0-23.284-7.839-23.284-18.721c0-10.413,7.021-18.604,25.975-18.604h16.147v-0.936c0-8.542-5.148-13.572-15.563-13.572
		c-7.02,0-14.274,2.34-18.954,6.201l-5.733-10.647c6.669-5.148,16.381-7.723,26.443-7.723
		C542.879,136.155,553.292,144.696,553.292,162.715z M538.667,179.798v-7.254h-15.094c-9.945,0-12.637,3.744-12.637,8.307
		c0,5.265,4.446,8.659,11.935,8.659C530.007,189.509,536.209,186.233,538.667,179.798z"/>
	<path fill="#577399" d="M610.389,136.155v13.924c-1.286-0.234-2.34-0.351-3.393-0.351c-11.115,0-20.136,6.552-20.136,19.306v30.304
		h-14.626v-62.48h13.924v9.126C591.312,139.388,599.976,136.155,610.389,136.155z"/>
	<path fill="#577399" d="M692.459,112.52v86.817h-15.041v-8.073c-4.914,5.967-12.168,8.892-20.709,8.892
		c-20.449,0-32.592-12.636-32.592-32.059s11.472-31.942,32.592-31.942c8.073,0,15.21,2.691,20.124,8.425v-32.06H692.459z
		 M677.067,168.097c0-11.935-8.073-19.54-18.604-19.54s-18.604,7.605-18.604,19.54s8.073,19.54,18.604,19.54
		S677.067,180.032,677.067,168.097z"/>
</g>
<g>
	<path fill="#FE675D" d="M18.375,223.938v17.49h-0.597v-15.998c0-0.066,0.002-0.133,0.006-0.199
		c0.004-0.065,0.006-0.132,0.006-0.198l-7.34,12.875c-0.083,0.142-0.183,0.212-0.299,0.212h-0.124c-0.125,0-0.229-0.07-0.311-0.212
		l-7.564-12.9c0.008,0.075,0.015,0.147,0.019,0.218c0.004,0.07,0.006,0.139,0.006,0.205v15.998H1.581v-17.49h0.411
		c0.066,0,0.123,0.01,0.168,0.03c0.045,0.021,0.089,0.064,0.131,0.131l7.588,12.889c0.075,0.157,0.145,0.311,0.211,0.46
		c0.033-0.075,0.066-0.151,0.1-0.23c0.033-0.078,0.07-0.159,0.112-0.242l7.365-12.876c0.042-0.066,0.085-0.109,0.13-0.131
		c0.045-0.021,0.102-0.03,0.168-0.03H18.375z"/>
	<path fill="#FE675D" d="M38.478,241.429h-0.535c-0.125,0-0.216-0.07-0.274-0.211l-2.276-5.536h-8.982l-2.276,5.536
		c-0.042,0.141-0.137,0.211-0.286,0.211h-0.51l7.24-17.49h0.659L38.478,241.429z M35.169,235.159l-4.005-9.74
		c-0.092-0.225-0.179-0.474-0.262-0.747c-0.074,0.273-0.162,0.522-0.261,0.747l-4.005,9.74H35.169z"/>
	<path fill="#FE675D" d="M55.048,241.429h-0.56c-0.091,0-0.172-0.012-0.242-0.037c-0.071-0.024-0.139-0.083-0.206-0.174l-6.17-7.552
		c-0.066-0.091-0.135-0.165-0.205-0.224c-0.07-0.058-0.149-0.105-0.236-0.144c-0.087-0.037-0.191-0.063-0.311-0.08
		s-0.268-0.025-0.441-0.025h-2.55v8.235h-0.685v-17.49h4.217c1.899,0,3.342,0.369,4.329,1.106c0.987,0.738,1.48,1.858,1.48,3.359
		c0,0.688-0.128,1.313-0.386,1.872c-0.257,0.56-0.618,1.045-1.082,1.455c-0.464,0.411-1.028,0.738-1.692,0.983
		c-0.664,0.244-1.397,0.392-2.202,0.441c0.149,0.083,0.294,0.207,0.435,0.373L55.048,241.429z M44.126,232.671h3.334
		c0.821,0,1.561-0.098,2.22-0.292c0.66-0.195,1.219-0.477,1.68-0.846s0.813-0.815,1.057-1.338s0.367-1.111,0.367-1.767
		c0-1.352-0.439-2.347-1.319-2.985c-0.879-0.639-2.148-0.958-3.807-0.958h-3.533V232.671z"/>
	<path fill="#FE675D" d="M60.721,232.235h1.12c0.157,0,0.292-0.004,0.404-0.012c0.112-0.009,0.215-0.029,0.311-0.063
		c0.095-0.033,0.182-0.079,0.261-0.137c0.079-0.059,0.164-0.133,0.255-0.225l7.713-7.601c0.1-0.1,0.193-0.168,0.28-0.205
		c0.087-0.037,0.188-0.056,0.305-0.056h0.498l-8.148,8.023c-0.149,0.142-0.276,0.249-0.379,0.323
		c-0.104,0.075-0.23,0.133-0.379,0.175c0.157,0.041,0.294,0.1,0.41,0.174s0.237,0.183,0.361,0.323l8.634,8.472h-0.498
		c-0.158,0-0.274-0.019-0.349-0.056s-0.145-0.098-0.211-0.181l-8.111-7.899c-0.091-0.091-0.174-0.168-0.249-0.23
		c-0.075-0.062-0.158-0.113-0.249-0.155c-0.091-0.041-0.201-0.072-0.33-0.093c-0.128-0.021-0.292-0.031-0.491-0.031h-1.157v8.646
		h-0.685v-17.49h0.685V232.235z"/>
	<path fill="#FE675D" d="M87.566,240.845l-0.025,0.584H77.216v-17.49h10.326v0.584H77.9v7.751h8.124v0.572H77.9v7.999H87.566z"/>
	<path fill="#FE675D" d="M104.547,224.535H98.14v16.894h-0.684v-16.894h-6.444v-0.597h13.535V224.535z"/>
	<path fill="#FE675D" d="M110.108,241.429h-0.685v-17.49h0.685V241.429z"/>
	<path fill="#FE675D" d="M130.534,223.938v17.49h-0.286c-0.108,0-0.199-0.05-0.274-0.149l-12.005-16.222
		c0.008,0.075,0.015,0.151,0.019,0.23c0.004,0.079,0.006,0.151,0.006,0.218v15.923h-0.597v-17.49h0.311
		c0.066,0,0.12,0.01,0.162,0.03c0.041,0.021,0.087,0.064,0.137,0.131l11.955,16.16c-0.008-0.075-0.015-0.149-0.019-0.224
		c-0.004-0.075-0.006-0.146-0.006-0.212v-15.886H130.534z"/>
	<path fill="#FE675D" d="M151.67,233.741v5.971c-0.863,0.589-1.792,1.056-2.787,1.399c-0.995,0.345-2.119,0.517-3.371,0.517
		c-1.369,0-2.6-0.209-3.695-0.628s-2.026-1.016-2.793-1.792c-0.767-0.775-1.354-1.714-1.76-2.817
		c-0.406-1.103-0.609-2.339-0.609-3.707s0.201-2.602,0.603-3.701c0.402-1.099,0.981-2.038,1.735-2.817
		c0.755-0.779,1.667-1.379,2.737-1.798s2.272-0.628,3.608-0.628c0.655,0,1.258,0.041,1.81,0.124c0.551,0.083,1.063,0.21,1.536,0.38
		s0.918,0.384,1.337,0.641s0.823,0.556,1.213,0.896l-0.174,0.261c-0.066,0.1-0.162,0.133-0.286,0.1
		c-0.083-0.024-0.235-0.132-0.454-0.323c-0.22-0.19-0.542-0.396-0.964-0.615s-0.964-0.421-1.624-0.604
		c-0.659-0.183-1.461-0.274-2.407-0.274c-1.219,0-2.32,0.191-3.303,0.572c-0.983,0.382-1.82,0.934-2.513,1.655
		c-0.693,0.722-1.226,1.599-1.599,2.631c-0.374,1.032-0.56,2.2-0.56,3.502c0,1.294,0.187,2.459,0.56,3.496
		c0.373,1.036,0.91,1.917,1.611,2.643c0.701,0.727,1.555,1.282,2.563,1.667c1.007,0.386,2.146,0.579,3.415,0.579
		c0.572,0,1.105-0.037,1.599-0.112c0.493-0.074,0.96-0.183,1.399-0.323s0.867-0.313,1.281-0.517c0.415-0.203,0.833-0.433,1.257-0.69
		v-5.138h-3.695c-0.058,0-0.108-0.021-0.149-0.062c-0.042-0.042-0.062-0.088-0.062-0.138v-0.348H151.67z"/>
	<path fill="#FE675D" d="M179.76,223.938v17.49h-0.286c-0.108,0-0.199-0.05-0.273-0.149l-12.005-16.222
		c0.008,0.075,0.014,0.151,0.019,0.23c0.004,0.079,0.006,0.151,0.006,0.218v15.923h-0.597v-17.49h0.311
		c0.066,0,0.12,0.01,0.162,0.03c0.041,0.021,0.087,0.064,0.137,0.131l11.955,16.16c-0.009-0.075-0.015-0.149-0.019-0.224
		c-0.005-0.075-0.007-0.146-0.007-0.212v-15.886H179.76z"/>
	<path fill="#FE675D" d="M193.27,241.031c0.904,0,1.711-0.16,2.42-0.479s1.311-0.757,1.804-1.313s0.871-1.208,1.132-1.959
		c0.262-0.751,0.392-1.557,0.392-2.42v-10.922h0.697v10.922c0,0.945-0.149,1.831-0.448,2.656s-0.728,1.545-1.287,2.158
		c-0.561,0.614-1.236,1.097-2.028,1.449s-1.686,0.529-2.681,0.529s-1.891-0.177-2.687-0.529c-0.797-0.353-1.473-0.835-2.028-1.449
		c-0.556-0.613-0.982-1.333-1.281-2.158s-0.448-1.711-0.448-2.656v-10.922h0.685v10.897c0,0.862,0.131,1.671,0.392,2.426
		c0.262,0.755,0.639,1.412,1.133,1.972c0.493,0.56,1.097,0.999,1.81,1.318S192.365,241.031,193.27,241.031z"/>
	<path fill="#FE675D" d="M223.573,223.938v17.49h-0.597v-15.998c0-0.066,0.002-0.133,0.006-0.199
		c0.004-0.065,0.006-0.132,0.006-0.198l-7.34,12.875c-0.083,0.142-0.182,0.212-0.298,0.212h-0.125c-0.124,0-0.228-0.07-0.311-0.212
		l-7.563-12.9c0.008,0.075,0.014,0.147,0.019,0.218c0.004,0.07,0.006,0.139,0.006,0.205v15.998h-0.597v-17.49h0.41
		c0.066,0,0.122,0.01,0.168,0.03c0.046,0.021,0.089,0.064,0.131,0.131l7.588,12.889c0.075,0.157,0.146,0.311,0.212,0.46
		c0.033-0.075,0.066-0.151,0.1-0.23c0.033-0.078,0.07-0.159,0.112-0.242l7.364-12.876c0.041-0.066,0.085-0.109,0.131-0.131
		c0.045-0.021,0.102-0.03,0.168-0.03H223.573z"/>
	<path fill="#FE675D" d="M241.213,240.845l-0.024,0.584h-10.325v-17.49h10.325v0.584h-9.642v7.751h8.124v0.572h-8.124v7.999H241.213
		z M239.87,218.589l-4.093,3.583c-0.083,0.074-0.191,0.111-0.324,0.111h-0.423l3.384-3.471c0.083-0.091,0.166-0.151,0.249-0.18
		c0.083-0.029,0.207-0.044,0.373-0.044H239.87z"/>
	<path fill="#FE675D" d="M258.679,241.429h-0.56c-0.092,0-0.173-0.012-0.243-0.037c-0.07-0.024-0.139-0.083-0.205-0.174l-6.17-7.552
		c-0.066-0.091-0.135-0.165-0.205-0.224c-0.071-0.058-0.149-0.105-0.237-0.144c-0.087-0.037-0.19-0.063-0.311-0.08
		s-0.268-0.025-0.441-0.025h-2.551v8.235h-0.684v-17.49h4.217c1.899,0,3.343,0.369,4.329,1.106c0.987,0.738,1.48,1.858,1.48,3.359
		c0,0.688-0.129,1.313-0.386,1.872s-0.618,1.045-1.082,1.455c-0.465,0.411-1.028,0.738-1.691,0.983
		c-0.664,0.244-1.398,0.392-2.202,0.441c0.149,0.083,0.294,0.207,0.436,0.373L258.679,241.429z M247.756,232.671h3.334
		c0.821,0,1.562-0.098,2.221-0.292c0.659-0.195,1.22-0.477,1.68-0.846s0.813-0.815,1.058-1.338c0.244-0.522,0.367-1.111,0.367-1.767
		c0-1.352-0.44-2.347-1.319-2.985s-2.147-0.958-3.807-0.958h-3.533V232.671z"/>
	<path fill="#FE675D" d="M264.352,241.429h-0.684v-17.49h0.684V241.429z"/>
	<path fill="#FE675D" d="M287.503,245.41h-0.585c-0.199,0-0.356-0.059-0.473-0.175l-4.118-4.416
		c-0.547,0.257-1.128,0.452-1.741,0.585c-0.614,0.133-1.261,0.199-1.94,0.199c-1.203,0-2.306-0.208-3.31-0.622
		c-1.004-0.415-1.866-1.01-2.588-1.785c-0.721-0.775-1.281-1.713-1.679-2.812c-0.398-1.099-0.598-2.333-0.598-3.701
		c0-1.36,0.199-2.592,0.598-3.694c0.397-1.104,0.958-2.043,1.679-2.818c0.722-0.775,1.584-1.374,2.588-1.798
		c1.004-0.423,2.106-0.634,3.31-0.634c1.219,0,2.33,0.209,3.334,0.628c1.003,0.419,1.865,1.016,2.587,1.791
		c0.722,0.776,1.281,1.715,1.68,2.818c0.398,1.103,0.597,2.339,0.597,3.707c0,0.912-0.091,1.769-0.273,2.568
		c-0.183,0.801-0.443,1.53-0.783,2.189c-0.341,0.66-0.753,1.249-1.238,1.767c-0.485,0.519-1.034,0.956-1.648,1.313L287.503,245.41z
		 M271.169,232.684c0,1.302,0.185,2.47,0.554,3.502c0.368,1.032,0.883,1.905,1.542,2.618c0.659,0.714,1.447,1.261,2.363,1.643
		c0.917,0.382,1.923,0.572,3.018,0.572c1.111,0,2.125-0.19,3.041-0.572c0.917-0.382,1.704-0.929,2.364-1.643
		c0.659-0.713,1.169-1.586,1.529-2.618c0.361-1.032,0.542-2.2,0.542-3.502s-0.181-2.47-0.542-3.502
		c-0.36-1.032-0.87-1.909-1.529-2.631c-0.66-0.722-1.447-1.273-2.364-1.655c-0.916-0.381-1.93-0.572-3.041-0.572
		c-1.095,0-2.101,0.191-3.018,0.572c-0.916,0.382-1.704,0.934-2.363,1.655s-1.174,1.599-1.542,2.631
		C271.354,230.214,271.169,231.382,271.169,232.684z"/>
	<path fill="#FE675D" d="M299.184,241.031c0.904,0,1.711-0.16,2.42-0.479s1.311-0.757,1.804-1.313s0.871-1.208,1.132-1.959
		c0.262-0.751,0.392-1.557,0.392-2.42v-10.922h0.697v10.922c0,0.945-0.149,1.831-0.448,2.656s-0.728,1.545-1.287,2.158
		c-0.561,0.614-1.236,1.097-2.028,1.449s-1.686,0.529-2.681,0.529s-1.891-0.177-2.687-0.529c-0.797-0.353-1.473-0.835-2.028-1.449
		c-0.556-0.613-0.982-1.333-1.281-2.158s-0.448-1.711-0.448-2.656v-10.922h0.685v10.897c0,0.862,0.131,1.671,0.392,2.426
		c0.262,0.755,0.639,1.412,1.133,1.972c0.493,0.56,1.097,0.999,1.81,1.318S298.279,241.031,299.184,241.031z"/>
	<path fill="#FE675D" d="M323.043,240.845l-0.024,0.584h-10.325v-17.49h10.325v0.584h-9.642v7.751h8.124v0.572h-8.124v7.999H323.043
		z"/>
	<path fill="#FE675D" d="M337.449,222.669h0.522v23.226h-0.522V222.669z"/>
	<path fill="#FE675D" d="M364.157,240.845l-0.024,0.584h-10.325v-17.49h10.325v0.584h-9.642v7.751h8.124v0.572h-8.124v7.999H364.157
		z"/>
	<path fill="#FE675D" d="M369.033,233.815h5.599v0.548h-5.599V233.815z"/>
	<path fill="#FE675D" d="M393.753,238.829c0.033,0,0.078,0.021,0.137,0.063l0.262,0.273c-0.365,0.365-0.76,0.698-1.183,1.001
		s-0.887,0.563-1.393,0.777c-0.506,0.216-1.06,0.384-1.661,0.504s-1.263,0.181-1.984,0.181c-1.186,0-2.278-0.209-3.277-0.628
		c-1-0.419-1.86-1.016-2.582-1.792c-0.722-0.775-1.285-1.714-1.691-2.817c-0.406-1.103-0.609-2.339-0.609-3.707
		c0-1.335,0.203-2.553,0.609-3.651s0.98-2.04,1.723-2.824c0.742-0.783,1.63-1.391,2.662-1.822c1.032-0.431,2.171-0.646,3.415-0.646
		c1.169,0,2.206,0.178,3.11,0.535c0.903,0.356,1.745,0.87,2.525,1.542l-0.187,0.273c-0.034,0.059-0.1,0.088-0.199,0.088
		c-0.05,0-0.135-0.046-0.255-0.138c-0.121-0.091-0.278-0.205-0.474-0.342c-0.194-0.137-0.431-0.286-0.709-0.447
		c-0.277-0.162-0.603-0.312-0.977-0.448c-0.373-0.137-0.796-0.251-1.269-0.342c-0.473-0.092-0.995-0.138-1.567-0.138
		c-1.128,0-2.165,0.195-3.11,0.585s-1.758,0.945-2.438,1.667c-0.68,0.722-1.208,1.599-1.586,2.631
		c-0.377,1.033-0.565,2.192-0.565,3.478c0,1.311,0.188,2.481,0.565,3.515c0.378,1.032,0.902,1.907,1.574,2.624
		c0.672,0.718,1.464,1.268,2.376,1.648c0.912,0.382,1.903,0.572,2.973,0.572c0.672,0,1.273-0.045,1.804-0.137
		c0.531-0.091,1.019-0.228,1.462-0.41c0.444-0.183,0.854-0.406,1.231-0.672c0.378-0.266,0.753-0.568,1.126-0.908
		C393.649,238.858,393.703,238.829,393.753,238.829z"/>
	<path fill="#FE675D" d="M414.552,232.684c0,1.368-0.198,2.603-0.597,3.701s-0.958,2.036-1.68,2.812s-1.584,1.37-2.587,1.785
		c-1.004,0.414-2.115,0.622-3.334,0.622c-1.203,0-2.306-0.208-3.31-0.622c-1.004-0.415-1.866-1.01-2.588-1.785
		c-0.721-0.775-1.281-1.713-1.679-2.812c-0.398-1.099-0.598-2.333-0.598-3.701c0-1.36,0.199-2.592,0.598-3.694
		c0.397-1.104,0.958-2.043,1.679-2.818c0.722-0.775,1.584-1.374,2.588-1.798c1.004-0.423,2.106-0.634,3.31-0.634
		c1.219,0,2.33,0.209,3.334,0.628c1.003,0.419,1.865,1.016,2.587,1.791c0.722,0.776,1.281,1.715,1.68,2.818
		C414.354,230.079,414.552,231.315,414.552,232.684z M413.831,232.684c0-1.302-0.181-2.47-0.542-3.502
		c-0.36-1.032-0.87-1.909-1.529-2.631c-0.66-0.722-1.447-1.273-2.364-1.655c-0.916-0.381-1.93-0.572-3.041-0.572
		c-1.095,0-2.101,0.191-3.018,0.572c-0.916,0.382-1.704,0.934-2.363,1.655s-1.174,1.599-1.542,2.631
		c-0.369,1.032-0.554,2.2-0.554,3.502s0.185,2.47,0.554,3.502c0.368,1.032,0.883,1.905,1.542,2.618
		c0.659,0.714,1.447,1.261,2.363,1.643c0.917,0.382,1.923,0.572,3.018,0.572c1.111,0,2.125-0.19,3.041-0.572
		c0.917-0.382,1.704-0.929,2.364-1.643c0.659-0.713,1.169-1.586,1.529-2.618C413.65,235.153,413.831,233.985,413.831,232.684z"/>
	<path fill="#FE675D" d="M437.467,223.938v17.49h-0.597v-15.998c0-0.066,0.002-0.133,0.006-0.199
		c0.004-0.065,0.006-0.132,0.006-0.198l-7.34,12.875c-0.083,0.142-0.182,0.212-0.298,0.212h-0.125c-0.124,0-0.228-0.07-0.311-0.212
		l-7.563-12.9c0.008,0.075,0.014,0.147,0.019,0.218c0.004,0.07,0.006,0.139,0.006,0.205v15.998h-0.597v-17.49h0.41
		c0.066,0,0.122,0.01,0.168,0.03c0.046,0.021,0.089,0.064,0.131,0.131l7.588,12.889c0.075,0.157,0.146,0.311,0.212,0.46
		c0.033-0.075,0.066-0.151,0.1-0.23c0.033-0.078,0.07-0.159,0.112-0.242l7.364-12.876c0.041-0.066,0.085-0.109,0.131-0.131
		c0.045-0.021,0.102-0.03,0.168-0.03H437.467z"/>
	<path fill="#FE675D" d="M461.551,223.938v17.49h-0.597v-15.998c0-0.066,0.002-0.133,0.006-0.199
		c0.004-0.065,0.006-0.132,0.006-0.198l-7.34,12.875c-0.083,0.142-0.182,0.212-0.298,0.212h-0.125c-0.124,0-0.228-0.07-0.311-0.212
		l-7.563-12.9c0.008,0.075,0.014,0.147,0.019,0.218c0.004,0.07,0.006,0.139,0.006,0.205v15.998h-0.597v-17.49h0.41
		c0.066,0,0.122,0.01,0.168,0.03c0.046,0.021,0.089,0.064,0.131,0.131l7.588,12.889c0.075,0.157,0.146,0.311,0.212,0.46
		c0.033-0.075,0.066-0.151,0.1-0.23c0.033-0.078,0.07-0.159,0.112-0.242l7.364-12.876c0.041-0.066,0.085-0.109,0.131-0.131
		c0.045-0.021,0.102-0.03,0.168-0.03H461.551z"/>
	<path fill="#FE675D" d="M479.19,240.845l-0.024,0.584h-10.325v-17.49h10.325v0.584h-9.642v7.751h8.124v0.572h-8.124v7.999H479.19z"
		/>
	<path fill="#FE675D" d="M496.656,241.429h-0.56c-0.092,0-0.173-0.012-0.243-0.037c-0.07-0.024-0.139-0.083-0.205-0.174l-6.17-7.552
		c-0.066-0.091-0.135-0.165-0.205-0.224c-0.071-0.058-0.149-0.105-0.237-0.144c-0.087-0.037-0.19-0.063-0.311-0.08
		s-0.268-0.025-0.441-0.025h-2.551v8.235h-0.684v-17.49h4.217c1.899,0,3.343,0.369,4.329,1.106c0.987,0.738,1.48,1.858,1.48,3.359
		c0,0.688-0.129,1.313-0.386,1.872s-0.618,1.045-1.082,1.455c-0.465,0.411-1.028,0.738-1.691,0.983
		c-0.664,0.244-1.398,0.392-2.202,0.441c0.149,0.083,0.294,0.207,0.436,0.373L496.656,241.429z M485.733,232.671h3.334
		c0.821,0,1.562-0.098,2.221-0.292c0.659-0.195,1.22-0.477,1.68-0.846s0.813-0.815,1.058-1.338c0.244-0.522,0.367-1.111,0.367-1.767
		c0-1.352-0.44-2.347-1.319-2.985s-2.147-0.958-3.807-0.958h-3.533V232.671z"/>
	<path fill="#FE675D" d="M514.408,238.829c0.033,0,0.078,0.021,0.137,0.063l0.262,0.273c-0.365,0.365-0.76,0.698-1.183,1.001
		s-0.887,0.563-1.393,0.777c-0.506,0.216-1.06,0.384-1.661,0.504s-1.263,0.181-1.984,0.181c-1.186,0-2.278-0.209-3.277-0.628
		c-1-0.419-1.86-1.016-2.582-1.792c-0.722-0.775-1.285-1.714-1.691-2.817c-0.406-1.103-0.609-2.339-0.609-3.707
		c0-1.335,0.203-2.553,0.609-3.651s0.98-2.04,1.723-2.824c0.742-0.783,1.63-1.391,2.662-1.822c1.032-0.431,2.171-0.646,3.415-0.646
		c1.169,0,2.206,0.178,3.11,0.535c0.903,0.356,1.745,0.87,2.525,1.542l-0.187,0.273c-0.034,0.059-0.1,0.088-0.199,0.088
		c-0.05,0-0.135-0.046-0.255-0.138c-0.121-0.091-0.278-0.205-0.474-0.342c-0.194-0.137-0.431-0.286-0.709-0.447
		c-0.277-0.162-0.603-0.312-0.977-0.448c-0.373-0.137-0.796-0.251-1.269-0.342c-0.473-0.092-0.995-0.138-1.567-0.138
		c-1.128,0-2.165,0.195-3.11,0.585s-1.758,0.945-2.438,1.667c-0.68,0.722-1.208,1.599-1.586,2.631
		c-0.377,1.033-0.565,2.192-0.565,3.478c0,1.311,0.188,2.481,0.565,3.515c0.378,1.032,0.902,1.907,1.574,2.624
		c0.672,0.718,1.464,1.268,2.376,1.648c0.912,0.382,1.903,0.572,2.973,0.572c0.672,0,1.273-0.045,1.804-0.137
		c0.531-0.091,1.019-0.228,1.462-0.41c0.444-0.183,0.854-0.406,1.231-0.672c0.378-0.266,0.753-0.568,1.126-0.908
		C514.305,238.858,514.358,238.829,514.408,238.829z"/>
	<path fill="#FE675D" d="M530.617,240.845l-0.024,0.584h-10.325v-17.49h10.325v0.584h-9.642v7.751h8.124v0.572h-8.124v7.999H530.617
		z"/>
	<path fill="#FE675D" d="M545.023,222.669h0.522v23.226h-0.522V222.669z"/>
	<path fill="#FE675D" d="M573.388,241.429h-0.535c-0.125,0-0.216-0.07-0.273-0.211l-2.277-5.536h-8.981l-2.276,5.536
		c-0.042,0.141-0.137,0.211-0.286,0.211h-0.51l7.24-17.49h0.659L573.388,241.429z M570.078,235.159l-4.006-9.74
		c-0.091-0.225-0.178-0.474-0.261-0.747c-0.075,0.273-0.162,0.522-0.262,0.747l-4.006,9.74H570.078z"/>
	<path fill="#FE675D" d="M591.487,223.938v17.49h-0.286c-0.108,0-0.199-0.05-0.273-0.149l-12.005-16.222
		c0.008,0.075,0.014,0.151,0.019,0.23c0.004,0.079,0.006,0.151,0.006,0.218v15.923h-0.597v-17.49h0.311
		c0.066,0,0.12,0.01,0.162,0.03c0.041,0.021,0.087,0.064,0.137,0.131l11.955,16.16c-0.009-0.075-0.015-0.149-0.019-0.224
		c-0.005-0.075-0.007-0.146-0.007-0.212v-15.886H591.487z"/>
	<path fill="#FE675D" d="M611.591,241.429h-0.535c-0.125,0-0.216-0.07-0.273-0.211l-2.277-5.536h-8.981l-2.276,5.536
		c-0.042,0.141-0.137,0.211-0.286,0.211h-0.51l7.24-17.49h0.659L611.591,241.429z M608.281,235.159l-4.006-9.74
		c-0.091-0.225-0.178-0.474-0.261-0.747c-0.075,0.273-0.162,0.522-0.262,0.747l-4.006,9.74H608.281z"/>
	<path fill="#FE675D" d="M625.908,240.832v0.597h-9.354v-17.49h0.684v16.894H625.908z"/>
	<path fill="#FE675D" d="M633.261,234.077v7.352h-0.696v-7.352l-6.494-10.139h0.585c0.074,0,0.133,0.015,0.174,0.043
		c0.042,0.029,0.083,0.077,0.125,0.144l5.535,8.683c0.083,0.142,0.162,0.278,0.236,0.411c0.075,0.133,0.138,0.266,0.187,0.397
		c0.059-0.141,0.123-0.275,0.193-0.404c0.07-0.128,0.147-0.263,0.23-0.404l5.535-8.683c0.066-0.125,0.162-0.187,0.286-0.187h0.598
		L633.261,234.077z"/>
	<path fill="#FE675D" d="M655.765,224.535h-6.406v16.894h-0.685v-16.894h-6.444v-0.597h13.535V224.535z"/>
	<path fill="#FE675D" d="M661.325,241.429h-0.684v-17.49h0.684V241.429z"/>
	<path fill="#FE675D" d="M681.416,238.829c0.033,0,0.078,0.021,0.137,0.063l0.262,0.273c-0.365,0.365-0.76,0.698-1.183,1.001
		s-0.887,0.563-1.393,0.777c-0.506,0.216-1.06,0.384-1.661,0.504s-1.263,0.181-1.984,0.181c-1.186,0-2.278-0.209-3.277-0.628
		c-1-0.419-1.86-1.016-2.582-1.792c-0.722-0.775-1.285-1.714-1.691-2.817c-0.406-1.103-0.609-2.339-0.609-3.707
		c0-1.335,0.203-2.553,0.609-3.651s0.98-2.04,1.723-2.824c0.742-0.783,1.63-1.391,2.662-1.822c1.032-0.431,2.171-0.646,3.415-0.646
		c1.169,0,2.206,0.178,3.11,0.535c0.903,0.356,1.745,0.87,2.525,1.542l-0.187,0.273c-0.034,0.059-0.1,0.088-0.199,0.088
		c-0.05,0-0.135-0.046-0.255-0.138c-0.121-0.091-0.278-0.205-0.474-0.342c-0.194-0.137-0.431-0.286-0.709-0.447
		c-0.277-0.162-0.603-0.312-0.977-0.448c-0.373-0.137-0.796-0.251-1.269-0.342c-0.473-0.092-0.995-0.138-1.567-0.138
		c-1.128,0-2.165,0.195-3.11,0.585s-1.758,0.945-2.438,1.667c-0.68,0.722-1.208,1.599-1.586,2.631
		c-0.377,1.033-0.565,2.192-0.565,3.478c0,1.311,0.188,2.481,0.565,3.515c0.378,1.032,0.902,1.907,1.574,2.624
		c0.672,0.718,1.464,1.268,2.376,1.648c0.912,0.382,1.903,0.572,2.973,0.572c0.672,0,1.273-0.045,1.804-0.137
		c0.531-0.091,1.019-0.228,1.462-0.41c0.444-0.183,0.854-0.406,1.231-0.672c0.378-0.266,0.753-0.568,1.126-0.908
		C681.313,238.858,681.366,238.829,681.416,238.829z"/>
	<path fill="#FE675D" d="M695.535,225.754c-0.05,0.083-0.12,0.125-0.211,0.125c-0.092,0-0.218-0.081-0.38-0.243
		c-0.161-0.161-0.388-0.342-0.678-0.541s-0.664-0.379-1.12-0.541c-0.456-0.161-1.02-0.242-1.691-0.242
		c-0.681,0-1.283,0.102-1.811,0.305c-0.526,0.203-0.968,0.479-1.324,0.827s-0.627,0.748-0.809,1.2
		c-0.183,0.452-0.273,0.927-0.273,1.425c0,0.639,0.128,1.171,0.385,1.599c0.258,0.427,0.598,0.786,1.021,1.076
		s0.902,0.534,1.437,0.733c0.535,0.199,1.085,0.393,1.648,0.579c0.564,0.187,1.113,0.386,1.648,0.597
		c0.535,0.212,1.014,0.479,1.437,0.803c0.424,0.323,0.764,0.724,1.021,1.2s0.386,1.068,0.386,1.772c0,0.722-0.123,1.399-0.367,2.034
		c-0.245,0.635-0.602,1.187-1.069,1.654c-0.469,0.469-1.041,0.838-1.717,1.107c-0.677,0.27-1.445,0.404-2.308,0.404
		c-0.59,0-1.122-0.052-1.599-0.155c-0.478-0.104-0.917-0.253-1.319-0.448c-0.402-0.194-0.771-0.433-1.106-0.715
		s-0.658-0.602-0.965-0.958l0.162-0.249c0.041-0.041,0.076-0.072,0.105-0.093c0.029-0.021,0.072-0.031,0.131-0.031
		c0.058,0,0.139,0.052,0.242,0.155s0.238,0.232,0.404,0.386s0.365,0.319,0.598,0.497c0.232,0.179,0.508,0.345,0.827,0.498
		s0.688,0.282,1.107,0.386c0.418,0.104,0.894,0.155,1.424,0.155c0.755,0,1.431-0.118,2.028-0.354
		c0.597-0.236,1.101-0.56,1.511-0.971c0.411-0.41,0.724-0.889,0.939-1.437c0.216-0.547,0.323-1.132,0.323-1.754
		c0-0.663-0.128-1.211-0.385-1.643c-0.258-0.431-0.596-0.791-1.015-1.082c-0.419-0.29-0.897-0.532-1.437-0.728
		s-1.089-0.382-1.648-0.56c-0.56-0.179-1.109-0.373-1.648-0.585s-1.018-0.48-1.437-0.809c-0.419-0.327-0.757-0.734-1.014-1.219
		c-0.258-0.485-0.386-1.093-0.386-1.823c0-0.572,0.107-1.119,0.323-1.642s0.528-0.985,0.939-1.388
		c0.41-0.401,0.916-0.723,1.518-0.964c0.602-0.24,1.292-0.36,2.071-0.36c0.879,0,1.656,0.141,2.332,0.423
		c0.677,0.282,1.309,0.722,1.897,1.318L695.535,225.754z"/>
</g>
<g>
	<polygon fill="none" points="370.906,168.059 346.378,168.059 346.378,168.059 370.906,168.059 	"/>
</g>
<g>
</g>
<g>
</g>
<g>
</g>
<g>
</g>
<g>
</g>
<g>
</g>
<g>
</g>
<g>
</g>
<g>
</g>
<g>
</g>
<g>
</g>
<g>
</g>
<g>
</g>
<g>
</g>
<g>
</g>
</svg>
